<svg xmlns="http://www.w3.org/2000/svg" width="52" height="48" fill="none"><path fill="currentColor" d="M33.423 42.47H18.568v1.598c-.008 2.383-1.562 3.93-3.966 3.924-.79-.002-1.596.033-2.368-.103-1.717-.308-2.914-1.78-2.945-3.515-.02-1.133.013-2.268-.02-3.402a1.01 1.01 0 0 0-.32-.661c-2.203-1.893-3.37-4.266-3.375-7.171-.009-5.865-.003-11.727-.003-17.591v-.76c-.38 0-.747-.053-1.09.012-.56.105-.771.51-.77 1.06.008 1.5.02 2.999-.006 4.498a1.838 1.838 0 0 1-1.653 1.787A1.864 1.864 0 0 1 .059 20.74a2.656 2.656 0 0 1-.055-.629 635.628 635.628 0 0 1-.001-4.21c.008-2.843 1.993-4.81 4.858-4.82h.712V9.342c.014-4.545 3.065-8.271 7.53-9.165a9.474 9.474 0 0 1 1.843-.166C22.312 0 29.682-.005 37.049.006c5.276.008 9.352 4.082 9.37 9.34.002.554 0 1.109 0 1.678.631.052 1.23.052 1.81.157 2.136.387 3.71 2.218 3.751 4.375.031 1.577.02 3.153.005 4.73-.011 1.07-.843 1.877-1.877 1.865-1.009-.012-1.813-.814-1.827-1.856-.017-1.326-.053-2.655.008-3.979.068-1.509-.608-1.68-1.87-1.486v.666c0 5.806-.01 11.612.005 17.419.008 3.016-1.133 5.481-3.431 7.44-.158.136-.27.411-.275.625-.027 1.077-.006 2.153-.013 3.23-.017 2.196-1.605 3.777-3.816 3.783-.83.002-1.675.043-2.484-.097-1.75-.303-2.945-1.78-2.98-3.543-.013-.61-.002-1.221-.002-1.88v-.003Zm9.282-26.328v-5.075c-.04-2.06-1.626-3.671-3.69-3.674-8.684-.013-17.368-.014-26.051 0-2.037.003-3.66 1.608-3.672 3.628-.023 3.403-.02 6.805 0 10.209.01 1.836 1.297 3.379 3.134 3.578 3.552.385 7.11.782 10.677.962 5.478.277 10.937-.106 16.36-.932 2.019-.308 3.234-1.758 3.243-3.791.006-1.635 0-3.268 0-4.903l-.001-.002ZM13.95 31.385c-1.52-.011-2.784 1.21-2.807 2.714a2.784 2.784 0 0 0 2.758 2.82c1.52.01 2.782-1.211 2.807-2.715a2.783 2.783 0 0 0-2.758-2.82Zm24.14 0c-1.521-.013-2.786 1.209-2.81 2.711a2.786 2.786 0 0 0 2.757 2.822c1.518.013 2.783-1.209 2.81-2.713a2.784 2.784 0 0 0-2.758-2.822v.002Z"/></svg>