<svg xmlns="http://www.w3.org/2000/svg" viewBox="0 0 48 48" fill="none"><path fill="currentColor" d="M24.015 48C10.805 48.02.01 37.237 0 24.013-.01 10.792 10.752.016 23.985 0 37.203-.016 47.988 10.754 48 23.984 48.012 37.205 37.252 47.98 24.015 48Zm2.159-26.172v-.67c0-3.391.006-6.782-.005-10.172-.004-1.308-.913-2.233-2.15-2.241-1.261-.008-2.184.923-2.187 2.254-.008 4.311-.01 8.621 0 12.932.003 1.348.897 2.233 2.255 2.237 3.221.01 6.44.01 9.662 0 1.302-.006 2.23-.92 2.235-2.155.005-1.26-.928-2.175-2.26-2.182-2.3-.011-4.6-.003-6.9-.004h-.65v.001Z"/></svg>