<svg xmlns="http://www.w3.org/2000/svg" viewBox="0 0 64 64" fill="none"><g clip-path="url(#a)"><path fill="currentColor" d="M9.565 64h2.257c.325-.069.653-.122.973-.207 3.403-.916 6.806-1.83 10.205-2.76 10.7-2.925 21.397-5.868 32.1-8.783 5.243-1.429 8.861-6.076 8.888-11.496.008-1.874-.013-3.749.005-5.622.064-6.59-1.353-12.838-4.359-18.715-.172-.339-.142-.538.127-.801a286.566 286.566 0 0 0 3.507-3.486c1.127-1.133.934-2.448-.452-3.245A66.483 66.483 0 0 0 47.21 2.384C42.117.984 36.922.225 31.644.035 28.624-.073 26.92 4.199 24 5 12.27 8.215 6.113 10.488 3.2 22.26c-.361 1.458-.463 2.98-.701 4.571.427-.102.688-.16.948-.225 8.622-2.147 14.74-3.228 23.368-5.348 3.743-.92 7.069 1.732 7.074 5.573.006 4.082.005 8.163 0 12.246-.004 2.637-1.405 4.629-3.872 5.548-9.727 3.63-19.452 7.263-29.178 10.897-.169.063-.328.152-.484.225.014.11.017.172.029.23.015.082.027.166.052.244 1.152 3.623 3.505 6.083 7.139 7.283.646.214 1.324.332 1.987.494l.002.002Zm30.6-29.63c.004-3.78 3.11-6.866 6.905-6.861 3.791.005 6.89 3.101 6.884 6.882-.005 3.776-3.115 6.867-6.906 6.862-3.791-.005-6.889-3.103-6.884-6.882v-.002Z"/><path fill="#fff" d="M21.325 43.867V26.474C14.212 28.247 2.945 30.726 2 31L.055 51.816l21.27-7.947v-.002ZM25.145 42.455c1.395-.54 2.746-1.02 4.058-1.59.64-.278.92-.895.922-1.591.007-4.205.015-8.412-.005-12.616-.005-1.192-1.031-2.02-2.2-1.797-.936.18-1.856.44-2.775.662v16.932ZM47.072 31.258a3.13 3.13 0 0 0-3.145 3.125c0 1.726 1.417 3.128 3.152 3.12 1.704-.009 3.103-1.398 3.114-3.095a3.133 3.133 0 0 0-3.12-3.152l-.001.002Z"/></g><defs><clipPath id="a"><path fill="#fff" d="M64 0H0v64h64z"/></clipPath></defs></svg>