<svg width="420" height="279" viewBox="0 0 420 279" fill="none" xmlns="http://www.w3.org/2000/svg">
<rect width="420" height="279" rx="25" fill="#2B2B2B"/>
<g clip-path="url(#clip0_469_30)">
<path d="M171.44 195H175.32C175.878 194.882 176.442 194.791 176.992 194.644C182.84 193.069 188.689 191.5 194.532 189.902C212.923 184.872 231.309 179.814 249.703 174.805C258.714 172.349 264.934 164.362 264.98 155.046C264.994 151.824 264.957 148.603 264.989 145.384C265.098 134.057 262.663 123.318 257.497 113.216C257.2 112.634 257.252 112.293 257.716 111.839C259.745 109.865 261.745 107.86 263.742 105.849C265.679 103.901 265.348 101.64 262.965 100.272C254.504 95.4058 245.561 91.6818 236.144 89.0969C227.389 86.6926 218.46 85.3873 209.389 85.0602C204.199 84.8737 201.27 92.2166 196.25 93.5937C176.092 99.1194 165.508 103.026 160.503 123.258C159.881 125.765 159.706 128.382 159.297 131.116C160.031 130.941 160.48 130.841 160.926 130.729C175.746 127.039 186.26 125.18 201.091 121.537C207.524 119.956 213.24 124.515 213.248 131.116C213.26 138.131 213.257 145.145 213.248 152.163C213.242 156.696 210.833 160.119 206.594 161.7C189.875 167.937 173.161 174.183 156.445 180.428C156.154 180.537 155.881 180.689 155.613 180.816C155.636 181.005 155.642 181.111 155.662 181.212C155.688 181.352 155.708 181.496 155.751 181.63C157.732 187.856 161.775 192.085 168.021 194.148C169.132 194.515 170.298 194.719 171.437 194.997L171.44 195ZM224.033 144.072C224.041 137.577 229.38 132.272 235.902 132.281C242.418 132.29 247.743 137.612 247.734 144.11C247.726 150.599 242.381 155.913 235.865 155.904C229.349 155.896 224.024 150.571 224.033 144.075V144.072Z" fill="white" fill-opacity="0.1"/>
<path d="M191.653 160.397V130.502C179.427 133.549 160.062 137.811 158.438 138.281L155.095 174.059C167.342 169.483 179.508 164.939 191.653 160.4V160.397Z" fill="white" fill-opacity="0.1"/>
<path d="M198.218 157.97C200.616 157.04 202.939 156.217 205.192 155.236C206.292 154.76 206.775 153.698 206.778 152.502C206.79 145.275 206.804 138.045 206.769 130.818C206.761 128.769 204.996 127.346 202.987 127.731C201.379 128.038 199.798 128.485 198.218 128.867V157.97Z" fill="white" fill-opacity="0.1"/>
<path d="M235.905 138.725C232.923 138.716 230.497 141.123 230.5 144.096C230.5 147.062 232.935 149.472 235.917 149.458C238.846 149.443 241.25 147.056 241.27 144.139C241.29 141.163 238.884 138.733 235.908 138.722L235.905 138.725Z" fill="white" fill-opacity="0.1"/>
</g>
<defs>
<clipPath id="clip0_469_30">
<rect width="110" height="110" fill="white" transform="matrix(-1 0 0 1 265 85)"/>
</clipPath>
</defs>
</svg>
