<svg xmlns="http://www.w3.org/2000/svg" width="38" height="48" fill="none"><path fill="currentColor" d="M.015 19.207C-.041 9.182 7.68.807 17.624.053c9.742-.738 18.62 6.36 20.133 16.128.683 4.405-.132 8.632-1.72 12.725-2.463 6.349-6.178 11.827-11.343 16.25-.873.75-1.866 1.372-2.847 1.98-1.884 1.162-3.781 1.133-5.713.029-2.802-1.604-5.08-3.81-7.12-6.277C4.66 35.608 1.457 29.745.274 22.89c-.12-.69-.201-1.388-.254-2.083-.04-.529-.008-1.066-.008-1.598l.003-.003Zm18.966 6.419c3.5 0 6.345-2.885 6.335-6.427-.01-3.494-2.829-6.355-6.287-6.376-3.509-.021-6.374 2.842-6.385 6.376-.01 3.54 2.834 6.427 6.335 6.427h.002Z"/></svg>