<svg xmlns="http://www.w3.org/2000/svg" width="64" height="64" fill="#202020"><g clip-path="url(#a)"><path fill="#E41F26" d="M9.565 64h2.258c.324-.069.653-.122.972-.207 3.403-.916 6.806-1.83 10.205-2.76 10.7-2.925 21.398-5.868 32.1-8.783 5.243-1.429 8.862-6.076 8.888-11.496.009-1.874-.013-3.749.005-5.622.064-6.59-1.353-12.838-4.358-18.715-.173-.339-.143-.538.127-.801a286.566 286.566 0 0 0 3.506-3.486c1.127-1.133.935-2.448-.452-3.245a66.483 66.483 0 0 0-15.605-6.501C42.117.984 36.923.225 31.644.035c-3.019-.108-6.033.002-8.954.803C10.962 4.053 3.614 11.569.702 23.34.34 24.8.238 26.322 0 27.913c.427-.102.688-.16.948-.226 8.622-2.146 17.24-4.31 25.869-6.43 3.742-.92 7.068 1.733 7.073 5.574.007 4.082.005 8.163 0 12.246-.004 2.637-1.405 4.629-3.872 5.548-9.727 3.63-19.451 7.263-29.177 10.897-.17.063-.328.152-.484.225.013.11.017.172.028.23.015.082.027.166.052.244 1.152 3.623 3.505 6.083 7.139 7.283.646.214 1.324.332 1.988.494l.001.002Zm30.6-29.63c.005-3.78 3.11-6.866 6.905-6.861 3.791.005 6.89 3.101 6.884 6.882-.005 3.776-3.114 6.867-6.906 6.862-3.79-.005-6.889-3.103-6.884-6.882v-.002Z"/><path fill="#fff" d="M21.326 43.867V26.474c-7.114 1.773-14.187 3.534-21.27 5.3v20.042l21.27-7.947v-.002ZM25.145 42.455c1.395-.54 2.747-1.02 4.058-1.59.64-.278.92-.895.922-1.591.007-4.205.015-8.412-.005-12.616-.005-1.192-1.031-2.02-2.2-1.797-.936.18-1.855.44-2.775.662v16.932ZM47.072 31.258a3.13 3.13 0 0 0-3.145 3.125c0 1.726 1.417 3.128 3.151 3.12 1.705-.009 3.103-1.398 3.115-3.095a3.133 3.133 0 0 0-3.12-3.152l-.001.002Z"/></g><defs><clipPath id="a"><path fill="#fff" d="M64 0H0v64h64z"/></clipPath></defs></svg>